<?xml version="1.0" encoding="utf-8"?>
<!-- Generator: Adobe Illustrator 17.1.0, SVG Export Plug-In . SVG Version: 6.00 Build 0)  -->
<!DOCTYPE svg PUBLIC "-//W3C//DTD SVG 1.1//EN" "http://www.w3.org/Graphics/SVG/1.1/DTD/svg11.dtd">
<svg version="1.1" id="Layer_1" xmlns="http://www.w3.org/2000/svg" xmlns:xlink="http://www.w3.org/1999/xlink" x="0px" y="0px"
	 viewBox="8.1 5.4 146.7 19.6" enable-background="new 8.1 5.4 146.7 19.6" xml:space="preserve">
<path fill="#5F6062" d="M8.2,20c-0.1-0.5,0-0.8,0.3-0.8c0.4,0,0.4,0.3,0.5,0.9c0.3,1.3,1.9,4.1,5.7,4.1c2.6,0,5.1-1.4,5.1-4.3
	c0-5.5-11-2.3-11-9.3c0-3.4,2.9-5.1,6-5.1c3.2,0,4.1,1,4.5,1c0.2,0,0.3-0.3,0.6-0.3c0.1,0,0.3,0.1,0.3,0.4l0.4,3.7
	c0.1,0.2,0,0.4-0.3,0.4c-0.3,0-0.5-0.6-0.6-0.8c-0.8-2.3-2.8-3.5-5.1-3.5c-2.1,0-4.4,1-4.4,3.5c0,5.1,10.9,2.1,10.9,9.6
	c0,2.3-1.6,5.7-7.7,5.7c-2,0-4.5-1-4.6-1.5L8.2,20z"/>
<g>
	<g>
		<path fill="#5F6062" d="M55.7,23.9c-0.8-0.5-0.9-1.2-1.6-2.9c-0.4-1-2.1-5.2-2.4-6c-0.3-0.7-0.8-2.1-1.2-3.1
			c-0.1-0.3-1.2-3-1.4-3.5c-0.2-0.7-0.4-0.9-0.5-0.9c-0.2,0-0.3,0.2-0.6,0.8c-0.8,1.7-1.9,4.1-3.2,6.8c-1.7,3.7-3,6.5-3.6,7.7
			c-0.6,1.2-1.8,1.2-2.4,1.2c-0.7,0-1.7-0.3-2.1-0.8c-0.6-0.8-0.8-1.7-1.1-2.7L30.7,8.5c-0.1-0.2-0.2-0.9-0.5-0.9
			c-0.3,0-0.4,0.4-1.8,3.4L22.8,23c-0.6,1.4-1.7,0.9-1.7,1.4c0,0.1,0.1,0.3,0.2,0.3c0.6,0,1.2-0.1,1.9-0.1c0.6,0,1.3,0.1,2,0.1
			c0.3,0,0.6,0.1,0.6-0.3c0-0.6-1.7,0.1-1.7-1.6c0-0.3,0.1-0.6,0.2-0.8l1.5-3.3c0.2-0.5,0.6-0.5,1.1-0.5h5.2c0.7,0,0.8,0.3,1.1,0.9
			l0.8,1.9c0.2,0.6,0.7,1.7,0.7,2.2c0,0.9-1.4,0.6-1.4,1.2c0,0.3,0.4,0.2,0.5,0.2c0.6,0,1.3-0.1,1.9-0.1c1.3,0,2.5,0.1,3.3,0.1
			c0.9,0,2.1-0.1,2.8-0.1c0.4,0,0.9,0,1.3,0.1c0.5,0,0.9,0,1,0c0.1-0.1,0.1-0.4,0-0.5c-0.2-0.1-0.5-0.1-0.9-0.2
			c-0.5-0.1-0.7-0.5-0.8-1c0-0.3,0.1-0.7,0.1-0.9c0.1-0.4,0.4-1.1,0.7-1.6c0.2-0.3,0.5-1,0.7-1.5c0.2-0.6,0.5-0.8,0.9-0.8
			c0.9,0,2.6,0,3.1,0c0.4,0,1.5,0,2.1,0c0.9,0,1.1,0.1,1.4,0.9c0.2,0.6,0.5,1.4,0.7,1.8c0.3,0.8,0.8,1.9,0.7,2.4
			c0,0.3-0.3,0.6-0.7,0.7c-0.4,0.1-0.8,0.3-0.7,0.5c0.1,0.2,0.4,0.2,0.7,0.2c0.3,0,1.3-0.1,1.8-0.1c0.5,0,1.1,0,1.5,0
			c1.1,0,1.6,0.2,1.7-0.2C57.3,24.1,56.2,24.2,55.7,23.9z M31.7,17.2H27c-0.3,0-0.4-0.1-0.3-0.4l2.7-5.8c0.1-0.3,0.3-0.3,0.4,0
			l2.3,5.7C32.2,17,32.3,17.2,31.7,17.2z M50.1,17.2h-4.6c-0.3,0-0.5-0.1-0.3-0.4l2.7-5.8c0.1-0.3,0.3-0.3,0.4,0l2.3,5.7
			C50.6,17,50.6,17.2,50.1,17.2z"/>
	</g>
</g>
<path fill="#5F6062" d="M61.4,10.4c0-0.2,0.1-1.1-0.2-1.1h-3.9c-1.5,0-1.5,0.4-1.9,1.6c-0.1,0.2-0.1,0.5-0.4,0.5
	c-0.2,0-0.2-0.2-0.2-0.3L55.1,9c0-0.3,0-0.9,0.4-0.9c1.9,0,3.7,0.1,6.7,0.1c4.3,0,6.5-0.1,6.9-0.1c0.5,0,0.6,0.1,0.7,0.7l0.1,1.9
	c0.1,0.2,0.1,0.5-0.2,0.5c-0.9,0,0.4-1.8-2-1.8h-3.4c-1,0-0.9-0.1-0.9,1.2v12c0,2,1.9,1.2,1.9,1.9c0,0.1,0,0.3-0.2,0.3
	c-0.6,0-1.2-0.1-1.9-0.1c-2.6,0-3.1,0.1-3.2,0.1c-0.2,0-0.3-0.1-0.3-0.3c0-0.6,1.8-0.3,1.8-1.7L61.4,10.4L61.4,10.4z"/>
<path fill="#5F6062" d="M79,7.8c4.4,0,5.7,1.8,6.3,1.8c0.2,0,0.4-0.2,0.6-0.2c0.3,0,0.3,0.4,0.4,1.9c0,1.3,0.3,2-0.2,2
	c-0.3,0-0.4-0.6-0.5-0.8c-1.5-2.5-3.1-4.1-6.2-4.1c-4.6,0-6.8,3.1-6.8,7.5c0,4.1,2.3,8.2,6.9,8.2c3.7,0,6-2.3,6.4-3.4
	c0-0.2,0.2-0.3,0.3-0.3c0.1,0,0.2,0.1,0.2,0.3l-0.5,2.3c0,0.1-1.7,1.9-7,1.9c-4.8,0-8.3-3.3-8.3-8.2C70.6,11.8,74.1,7.8,79,7.8z"/>
<path fill="#5F6062" d="M90.1,10.1c0-1.7-2-1.3-2-1.8c0-0.2,0.2-0.3,0.4-0.3c0.9,0,1.7,0.1,2.6,0.1c0.7,0,1.5-0.1,2.2-0.1
	c0.4,0,0.5,0.1,0.5,0.2c0,0.5-1.7,0-1.7,1.8v5.1c0,0.3,0,0.4,0.3,0.4h8.7c0.2,0,0.2-0.6,0.2-0.7v-4.8c0-1.6-1.8-1.2-1.8-1.8
	c0-0.1,0-0.3,0.4-0.3c0.8,0,2,0.1,2.4,0.1c0.9,0,1.3-0.1,1.7-0.1c0.6,0,0.7,0.2,0.7,0.4c0,0.4-1.6,0-1.6,1.7v12.5
	c0,1.7,2.2,1.3,2.2,1.9c0,0.1-0.1,0.3-0.3,0.3c-0.6,0-1.4-0.1-2.2-0.1c-1.5,0-2.2,0.1-2.6,0.1c-0.2,0-0.6,0.1-0.6-0.3
	c0-0.6,1.7-0.2,1.7-1.7v-5.7c0-0.4,0.1-0.6-0.2-0.6h-8.7c-0.3,0-0.3,0.1-0.3,0.4v5.9c0,1.6,2.2,1.1,2.2,1.8c0,0.1-0.2,0.2-0.4,0.2
	c-0.3,0-2.1-0.1-3.3-0.1c-1.7,0-1.9,0.1-2,0.1c-0.2,0-0.3-0.1-0.3-0.3c0-0.7,1.8,0.1,1.8-2.2L90.1,10.1L90.1,10.1z"/>
<path fill="#5F6062" d="M109,10.1c0-1.7-1.9-1.3-1.9-1.8c0-0.2,0.1-0.3,0.2-0.3c0.9,0,1.7,0.1,2.6,0.1c0.7,0,1.5-0.1,2.2-0.1
	c0.4,0,0.5,0.1,0.5,0.2c0,0.6-1.7,0-1.7,1.8v12.7c0,1.6,2.1,1.1,2.1,1.8c0,0.2-0.1,0.2-0.4,0.2c-0.5,0-1.6-0.1-2.6-0.1
	c-1.5,0-1.9,0.1-2.3,0.1c-0.4,0-0.5-0.1-0.5-0.3c0-0.7,1.8,0.1,1.8-2.2L109,10.1L109,10.1z"/>
<g>
	<path fill="#F47D30" d="M125.2,8h4.1v13.2h6.5v3.5h-10.6V8z"/>
	<path fill="#F47D30" d="M148.7,8l6.1,16.7h-4.4l-0.8-2.7h-6.1l-0.8,2.7h-4.4L144.4,8C144.4,8,148.7,8,148.7,8z M146.5,12
		c-0.2,0.8-0.4,1.7-0.7,2.6c-0.3,1.2-1,3.2-1.4,4.5h4.2L146.5,12z"/>
</g>
</svg>
