<?xml version="1.0" encoding="utf-8"?>
<!-- Generator: Adobe Illustrator 17.1.0, SVG Export Plug-In . SVG Version: 6.00 Build 0)  -->
<!DOCTYPE svg PUBLIC "-//W3C//DTD SVG 1.1//EN" "http://www.w3.org/Graphics/SVG/1.1/DTD/svg11.dtd">
<svg version="1.1" id="Layer_1" xmlns="http://www.w3.org/2000/svg" xmlns:xlink="http://www.w3.org/1999/xlink" x="0px" y="0px"
	 viewBox="9.1 7.8 288.5 19.6" enable-background="new 9.1 7.8 288.5 19.6" xml:space="preserve">
<g>
	<g>
		<g>
			<path fill="#5F6062" d="M9.1,22.3c-0.1-0.5,0-0.8,0.3-0.8c0.4,0,0.4,0.3,0.5,0.9c0.3,1.3,1.9,4.1,5.7,4.1c2.6,0,5.1-1.4,5.1-4.3
				c0-5.5-11-2.3-11-9.3c0-3.4,2.9-5.1,6-5.1c3.3,0,4.2,1,4.5,1c0.2,0,0.3-0.3,0.6-0.3c0.2,0,0.3,0.1,0.3,0.4l0.4,3.7
				c0,0.2,0,0.4-0.3,0.4c-0.3,0-0.5-0.6-0.6-0.8c-0.8-2.3-2.8-3.5-5.1-3.5c-2.1,0-4.4,1-4.4,3.5c0,5.1,11,2.1,11,9.6
				c0,2.3-1.6,5.7-7.7,5.7c-2,0-4.4-1-4.6-1.5L9.1,22.3z"/>
			<g>
				<g>
					<path fill="#5F6062" d="M56.7,26.2c-0.8-0.5-0.9-1.2-1.6-2.9c-0.4-1-2.1-5.2-2.4-6c-0.3-0.7-0.8-2.1-1.2-3.1
						c-0.1-0.3-1.2-3-1.4-3.5c-0.2-0.7-0.4-0.9-0.5-0.9c-0.2,0-0.3,0.2-0.6,0.8c-0.8,1.7-1.9,4.1-3.2,6.8c-1.7,3.7-3,6.5-3.6,7.7
						c-0.6,1.2-1.7,1.2-2.4,1.2c-0.7,0-1.7-0.3-2.1-0.8c-0.6-0.8-0.8-1.7-1.1-2.7l-4.9-12.1c-0.1-0.2-0.2-0.9-0.5-0.9
						c-0.3,0-0.4,0.4-1.8,3.4l-5.6,12.1c-0.6,1.4-1.7,0.9-1.7,1.4c0,0.1,0.1,0.3,0.2,0.3c0.6,0,1.3-0.1,1.9-0.1c0.7,0,1.3,0.1,2,0.1
						c0.3,0,0.6,0.1,0.6-0.3c0-0.6-1.7,0.1-1.7-1.6c0-0.3,0.1-0.6,0.2-0.8l1.5-3.3c0.2-0.5,0.7-0.5,1.1-0.5H33c0.7,0,0.8,0.3,1,0.9
						l0.8,1.9c0.2,0.6,0.7,1.7,0.7,2.2c0,0.9-1.4,0.6-1.4,1.2c0,0.3,0.4,0.2,0.5,0.2c0.6,0,1.3-0.1,1.9-0.1c1.3,0,2.5,0.1,3.3,0.1
						c0.9,0,2.1-0.1,2.8-0.1c0.4,0,0.9,0,1.3,0.1c0.5,0,0.9,0,1,0c0.1-0.1,0.2-0.4,0-0.5c-0.1-0.1-0.5-0.1-0.9-0.2
						c-0.5-0.1-0.7-0.5-0.7-1c0-0.3,0.1-0.7,0.1-0.9c0.1-0.4,0.5-1.1,0.7-1.6c0.1-0.3,0.5-1,0.7-1.5c0.2-0.6,0.4-0.8,0.9-0.8
						c0.9,0,2.6,0,3.1,0c0.4,0,1.5,0,2.1,0c0.9,0,1.1,0.1,1.4,0.9c0.2,0.6,0.5,1.4,0.7,1.8c0.3,0.8,0.8,1.9,0.8,2.4
						c0,0.3-0.3,0.6-0.7,0.7c-0.4,0.1-0.8,0.3-0.7,0.5c0.1,0.2,0.4,0.2,0.7,0.2c0.3,0,1.3-0.1,1.8-0.1c0.4,0,1.1,0,1.5,0
						c1.1,0,1.6,0.2,1.7-0.2C58.2,26.5,57.2,26.5,56.7,26.2z M32.7,19.5H28c-0.3,0-0.5-0.1-0.3-0.4l2.7-5.8c0.1-0.3,0.3-0.3,0.4,0
						l2.3,5.7C33.2,19.3,33.2,19.5,32.7,19.5z M51.1,19.5h-4.7c-0.3,0-0.5-0.1-0.3-0.4l2.7-5.8c0.1-0.3,0.3-0.3,0.4,0l2.3,5.7
						C51.6,19.3,51.6,19.5,51.1,19.5z"/>
				</g>
			</g>
			<path fill="#5F6062" d="M62.4,12.8c0-0.2,0.1-1.1-0.2-1.1h-3.8c-1.5,0-1.5,0.4-1.9,1.6c-0.1,0.2-0.1,0.5-0.4,0.5
				c-0.1,0-0.2-0.2-0.2-0.3l0.3-2.3c0-0.3,0-0.9,0.4-0.9c1.8,0,3.7,0.1,6.7,0.1c4.3,0,6.5-0.1,6.9-0.1c0.5,0,0.7,0.1,0.7,0.7
				l0.1,1.9c0,0.2,0,0.5-0.3,0.5c-0.9,0,0.4-1.8-2-1.8h-3.4c-1.1,0-0.9-0.1-0.9,1.2v12c0,2,1.9,1.2,1.9,1.9c0,0.1,0,0.3-0.2,0.3
				c-0.6,0-1.2-0.1-1.9-0.1c-2.6,0-3.1,0.1-3.2,0.1c-0.2,0-0.3-0.1-0.3-0.3c0-0.6,1.9-0.3,1.9-1.7C62.4,25.1,62.4,12.8,62.4,12.8z"
				/>
			<path fill="#5F6062" d="M80,10.2c4.4,0,5.7,1.8,6.4,1.8c0.2,0,0.3-0.2,0.6-0.2c0.2,0,0.2,0.4,0.3,1.9c0,1.3,0.3,2-0.1,2
				c-0.3,0-0.4-0.6-0.5-0.8c-1.5-2.5-3.1-4.1-6.2-4.1c-4.6,0-6.8,3.1-6.8,7.5c0,4.1,2.3,8.2,6.9,8.2c3.7,0,6-2.3,6.4-3.4
				c0-0.2,0.2-0.3,0.3-0.3c0.1,0,0.2,0.1,0.2,0.3l-0.5,2.3c0,0.1-1.7,1.9-7,1.9c-4.8,0-8.3-3.3-8.3-8.2C71.5,14.2,75,10.2,80,10.2z"
				/>
			<path fill="#5F6062" d="M91.1,12.4c0-1.7-2-1.3-2-1.8c0-0.2,0.2-0.3,0.4-0.3c0.9,0,1.7,0.1,2.6,0.1c0.7,0,1.5-0.1,2.2-0.1
				c0.4,0,0.5,0.1,0.5,0.2c0,0.5-1.7,0-1.7,1.8v5.1c0,0.3,0,0.4,0.4,0.4h8.6c0.2,0,0.2-0.6,0.2-0.7v-4.8c0-1.6-1.8-1.2-1.8-1.8
				c0-0.1,0-0.3,0.4-0.3c0.8,0,2,0.1,2.4,0.1c0.9,0,1.2-0.1,1.7-0.1c0.6,0,0.7,0.2,0.7,0.4c0,0.4-1.6,0-1.6,1.7v12.5
				c0,1.7,2.1,1.3,2.1,1.9c0,0.1-0.1,0.3-0.3,0.3c-0.6,0-1.4-0.1-2.2-0.1c-1.5,0-2.2,0.1-2.6,0.1c-0.2,0-0.6,0.1-0.6-0.3
				c0-0.6,1.7-0.2,1.7-1.7v-5.7c0-0.4,0.1-0.6-0.2-0.6h-8.7C93,18.8,93,19,93,19.2v5.9c0,1.6,2.2,1.1,2.2,1.8c0,0.1-0.2,0.2-0.4,0.2
				c-0.3,0-2-0.1-3.3-0.1c-1.7,0-1.9,0.1-2,0.1c-0.2,0-0.3-0.1-0.3-0.3c0-0.7,1.8,0.1,1.8-2.2L91.1,12.4L91.1,12.4z"/>
			<path fill="#5F6062" d="M110,12.4c0-1.7-1.9-1.3-1.9-1.8c0-0.2,0-0.3,0.2-0.3c0.9,0,1.7,0.1,2.6,0.1c0.7,0,1.5-0.1,2.2-0.1
				c0.4,0,0.4,0.1,0.4,0.2c0,0.6-1.7,0-1.7,1.8v12.7c0,1.6,2.1,1.1,2.1,1.8c0,0.2-0.1,0.2-0.5,0.2c-0.5,0-1.6-0.1-2.6-0.1
				c-1.5,0-1.9,0.1-2.3,0.1c-0.4,0-0.5-0.1-0.5-0.3c0-0.7,1.8,0.1,1.8-2.2V12.4z"/>
			<path fill="#5F6062" d="M150.9,22.3c-0.1-0.5,0-0.8,0.3-0.8c0.4,0,0.4,0.3,0.5,0.9c0.3,1.3,1.9,4.1,5.7,4.1
				c2.6,0,5.1-1.4,5.1-4.3c0-5.5-11-2.3-11-9.3c0-3.4,2.9-5.1,6-5.1c3.2,0,4.1,1,4.5,1c0.2,0,0.3-0.3,0.6-0.3c0.1,0,0.3,0.1,0.3,0.4
				l0.4,3.7c0.1,0.2,0,0.4-0.3,0.4c-0.3,0-0.5-0.6-0.6-0.8c-0.8-2.3-2.8-3.5-5.1-3.5c-2.1,0-4.4,1-4.4,3.5c0,5.1,10.9,2.1,10.9,9.6
				c0,2.3-1.6,5.7-7.7,5.7c-2,0-4.5-1-4.6-1.5L150.9,22.3z"/>
			<g>
				<g>
					<path fill="#5F6062" d="M198.5,26.2c-0.8-0.5-0.9-1.2-1.6-2.9c-0.4-1-2.1-5.2-2.4-6c-0.3-0.7-0.8-2.1-1.2-3.1
						c-0.1-0.3-1.2-3-1.4-3.5c-0.2-0.7-0.4-0.9-0.5-0.9c-0.2,0-0.3,0.2-0.6,0.8c-0.8,1.7-1.9,4.1-3.2,6.8c-1.7,3.7-3,6.5-3.6,7.7
						c-0.6,1.2-1.8,1.2-2.4,1.2c-0.7,0-1.7-0.3-2.1-0.8c-0.6-0.8-0.8-1.7-1.1-2.7l-4.9-12.1c-0.1-0.2-0.2-0.9-0.5-0.9
						c-0.3,0-0.4,0.4-1.8,3.4l-5.6,12.1c-0.6,1.4-1.7,0.9-1.7,1.4c0,0.1,0.1,0.3,0.2,0.3c0.6,0,1.2-0.1,1.9-0.1c0.6,0,1.3,0.1,2,0.1
						c0.3,0,0.6,0.1,0.6-0.3c0-0.6-1.7,0.1-1.7-1.6c0-0.3,0.1-0.6,0.2-0.8l1.5-3.3c0.2-0.5,0.6-0.5,1.1-0.5h5.2
						c0.7,0,0.8,0.3,1.1,0.9l0.8,1.9c0.2,0.6,0.7,1.7,0.7,2.2c0,0.9-1.4,0.6-1.4,1.2c0,0.3,0.4,0.2,0.5,0.2c0.6,0,1.3-0.1,1.9-0.1
						c1.3,0,2.5,0.1,3.3,0.1c0.9,0,2.1-0.1,2.8-0.1c0.4,0,0.9,0,1.3,0.1c0.5,0,0.9,0,1,0c0.1-0.1,0.1-0.4,0-0.5
						c-0.2-0.1-0.5-0.1-0.9-0.2c-0.5-0.1-0.7-0.5-0.8-1c0-0.3,0.1-0.7,0.1-0.9c0.1-0.4,0.4-1.1,0.7-1.6c0.2-0.3,0.5-1,0.7-1.5
						c0.2-0.6,0.5-0.8,0.9-0.8c0.9,0,2.6,0,3.1,0c0.4,0,1.5,0,2.1,0c0.9,0,1.1,0.1,1.4,0.9c0.2,0.6,0.5,1.4,0.7,1.8
						c0.3,0.8,0.8,1.9,0.7,2.4c0,0.3-0.3,0.6-0.7,0.7c-0.4,0.1-0.8,0.3-0.7,0.5c0.1,0.2,0.4,0.2,0.7,0.2c0.3,0,1.3-0.1,1.8-0.1
						c0.5,0,1.1,0,1.5,0c1.1,0,1.6,0.2,1.7-0.2C200,26.5,199,26.5,198.5,26.2z M174.5,19.5h-4.7c-0.3,0-0.4-0.1-0.3-0.4l2.7-5.8
						c0.1-0.3,0.3-0.3,0.4,0l2.3,5.7C175,19.3,175,19.5,174.5,19.5z M192.8,19.5h-4.6c-0.3,0-0.5-0.1-0.3-0.4l2.7-5.8
						c0.1-0.3,0.3-0.3,0.4,0l2.3,5.7C193.4,19.3,193.4,19.5,192.8,19.5z"/>
				</g>
			</g>
			<path fill="#5F6062" d="M204.2,12.8c0-0.2,0.1-1.1-0.2-1.1h-3.9c-1.5,0-1.5,0.4-1.9,1.6c-0.1,0.2-0.1,0.5-0.4,0.5
				c-0.2,0-0.2-0.2-0.2-0.3l0.3-2.3c0-0.3,0-0.9,0.4-0.9c1.9,0,3.7,0.1,6.7,0.1c4.3,0,6.5-0.1,6.9-0.1c0.5,0,0.6,0.1,0.7,0.7
				l0.1,1.9c0.1,0.2,0.1,0.5-0.2,0.5c-0.9,0,0.4-1.8-2-1.8H207c-1,0-0.9-0.1-0.9,1.2v12c0,2,1.9,1.2,1.9,1.9c0,0.1,0,0.3-0.2,0.3
				c-0.6,0-1.2-0.1-1.9-0.1c-2.6,0-3.1,0.1-3.2,0.1c-0.2,0-0.3-0.1-0.3-0.3c0-0.6,1.8-0.3,1.8-1.7L204.2,12.8L204.2,12.8z"/>
			<path fill="#5F6062" d="M221.8,10.2c4.4,0,5.7,1.8,6.3,1.8c0.2,0,0.4-0.2,0.6-0.2c0.3,0,0.3,0.4,0.4,1.9c0,1.3,0.3,2-0.2,2
				c-0.3,0-0.4-0.6-0.5-0.8c-1.5-2.5-3.1-4.1-6.2-4.1c-4.6,0-6.8,3.1-6.8,7.5c0,4.1,2.3,8.2,6.9,8.2c3.7,0,6-2.3,6.4-3.4
				c0-0.2,0.2-0.3,0.3-0.3c0.1,0,0.2,0.1,0.2,0.3l-0.5,2.3c0,0.1-1.7,1.9-7,1.9c-4.8,0-8.3-3.3-8.3-8.2
				C213.3,14.2,216.8,10.2,221.8,10.2z"/>
			<path fill="#5F6062" d="M232.9,12.4c0-1.7-2-1.3-2-1.8c0-0.2,0.2-0.3,0.4-0.3c0.9,0,1.7,0.1,2.6,0.1c0.7,0,1.5-0.1,2.2-0.1
				c0.4,0,0.5,0.1,0.5,0.2c0,0.5-1.7,0-1.7,1.8v5.1c0,0.3,0,0.4,0.3,0.4h8.7c0.2,0,0.2-0.6,0.2-0.7v-4.8c0-1.6-1.8-1.2-1.8-1.8
				c0-0.1,0-0.3,0.4-0.3c0.8,0,2,0.1,2.4,0.1c0.9,0,1.3-0.1,1.7-0.1c0.6,0,0.7,0.2,0.7,0.4c0,0.4-1.6,0-1.6,1.7v12.5
				c0,1.7,2.2,1.3,2.2,1.9c0,0.1-0.1,0.3-0.3,0.3c-0.6,0-1.4-0.1-2.2-0.1c-1.5,0-2.2,0.1-2.6,0.1c-0.2,0-0.6,0.1-0.6-0.3
				c0-0.6,1.7-0.2,1.7-1.7v-5.7c0-0.4,0.1-0.6-0.2-0.6H235c-0.3,0-0.3,0.1-0.3,0.4v5.9c0,1.6,2.2,1.1,2.2,1.8c0,0.1-0.2,0.2-0.4,0.2
				c-0.3,0-2.1-0.1-3.3-0.1c-1.7,0-1.9,0.1-2,0.1c-0.2,0-0.3-0.1-0.3-0.3c0-0.7,1.8,0.1,1.8-2.2L232.9,12.4L232.9,12.4z"/>
			<path fill="#5F6062" d="M251.7,12.4c0-1.7-1.9-1.3-1.9-1.8c0-0.2,0.1-0.3,0.2-0.3c0.9,0,1.7,0.1,2.6,0.1c0.7,0,1.5-0.1,2.2-0.1
				c0.4,0,0.5,0.1,0.5,0.2c0,0.6-1.7,0-1.7,1.8v12.7c0,1.6,2.1,1.1,2.1,1.8c0,0.2-0.1,0.2-0.4,0.2c-0.5,0-1.6-0.1-2.6-0.1
				c-1.5,0-1.9,0.1-2.3,0.1c-0.4,0-0.5-0.1-0.5-0.3c0-0.7,1.8,0.1,1.8-2.2L251.7,12.4L251.7,12.4z"/>
		</g>
	</g>
	<path fill="#5F6062" d="M134,12.1c0,0.1-0.2,0.2-0.3,0.2c-0.2,0-0.3-0.3-0.4-0.5c-0.6-1.4-2-2.8-3.6-2.8c-1.2,0-2.2,0.9-2.2,2.1
		c0,1.8,3.9,6,9.6,11.3c0.7-0.8,0.8-1.7,0.8-2.8c0-3.1-2.5-2-2.5-2.9c0-0.3,0.4-0.2,0.6-0.2c1,0,1.9,0.1,2.3,0.1
		c0.3,0,0.8-0.1,1.7-0.1c0.2,0,0.4,0,0.4,0.3c0,0.4-1,0.1-1.1,1.3c-0.2,1.7-0.4,3.4-1.2,4.9c1,0.8,3.5,3.3,4.7,3.3
		c0.5,0,0.8-0.1,1-0.1c0.2,0,0.2,0.2,0.2,0.2c0,0.4-1.3,0.8-2.2,0.8c-2,0-3.4-1.5-4.9-2.7c-1.9,1.8-3.9,2.7-6.5,2.7
		c-3.9,0-7.3-2.6-7.3-6.7c0-2.8,1.4-5,4.2-5.6c-0.7-0.8-1.2-1.9-1.2-3c0-2.4,2.2-3.6,4.3-3.6c1.7,0,2.7,0.7,2.8,0.7
		c0.1,0,0.2-0.2,0.5-0.2c0.4,0,0.3,0.5,0.3,0.7L134,12.1z M136,24c-5.6-4.8-7.7-8.4-8.6-8.4c-1.7,0-2.9,2.1-2.9,3.6
		c0,3.5,3.4,6.5,6.8,6.5C132.9,25.7,134.7,25.2,136,24z"/>
	<g>
		<path fill="#F47D30" d="M267.9,10.4h4.1v13.2h6.5V27h-10.6V10.4z"/>
		<path fill="#F47D30" d="M291.5,10.4l6.1,16.7h-4.4l-0.8-2.7h-6.1l-0.8,2.7H281l6.2-16.7C287.1,10.4,291.5,10.4,291.5,10.4z
			 M289.2,14.3c-0.2,0.8-0.4,1.7-0.7,2.6c-0.3,1.2-1,3.2-1.4,4.5h4.2L289.2,14.3z"/>
	</g>
</g>
</svg>
