<svg xmlns="http://www.w3.org/2000/svg" viewBox="8.1 5.4 146.7 19.6" enable-background="new 8.1 5.4 146.7 19.6"><path fill="#5F6062" d="M8.2 20c-.1-.5 0-.8.3-.8.4 0 .4.3.5.9.3 1.3 1.9 4.1 5.7 4.1 2.6 0 5.1-1.4 5.1-4.3 0-5.5-11-2.3-11-9.3 0-3.4 2.9-5.1 6-5.1 3.2 0 4.1 1 4.5 1 .2 0 .3-.3.6-.3.1 0 .3.1.3.4l.4 3.7c.1.2 0 .4-.3.4s-.5-.6-.6-.8c-.8-2.3-2.8-3.5-5.1-3.5-2.1 0-4.4 1-4.4 3.5 0 5.1 10.9 2.1 10.9 9.6 0 2.3-1.6 5.7-7.7 5.7-2 0-4.5-1-4.6-1.5L8.2 20zM55.7 23.9c-.8-.5-.9-1.2-1.6-2.9-.4-1-2.1-5.2-2.4-6-.3-.7-.8-2.1-1.2-3.1-.1-.3-1.2-3-1.4-3.5-.2-.7-.4-.9-.5-.9-.2 0-.3.2-.6.8-.8 1.7-1.9 4.1-3.2 6.8-1.7 3.7-3 6.5-3.6 7.7-.6 1.2-1.8 1.2-2.4 1.2-.7 0-1.7-.3-2.1-.8-.6-.8-.8-1.7-1.1-2.7l-4.9-12c-.1-.2-.2-.9-.5-.9s-.4.4-1.8 3.4l-5.6 12c-.6 1.4-1.7.9-1.7 1.4 0 .1.1.3.2.3.6 0 1.2-.1 1.9-.1.6 0 1.3.1 2 .1.3 0 .6.1.6-.3 0-.6-1.7.1-1.7-1.6 0-.3.1-.6.2-.8l1.5-3.3c.2-.5.6-.5 1.1-.5h5.2c.7 0 .8.3 1.1.9L34 21c.2.6.7 1.7.7 2.2 0 .9-1.4.6-1.4 1.2 0 .3.4.2.5.2.6 0 1.3-.1 1.9-.1 1.3 0 2.5.1 3.3.1.9 0 2.1-.1 2.8-.1.4 0 .9 0 1.3.1h1c.1-.1.1-.4 0-.5-.2-.1-.5-.1-.9-.2-.5-.1-.7-.5-.8-1 0-.3.1-.7.1-.9.1-.4.4-1.1.7-1.6.2-.3.5-1 .7-1.5.2-.6.5-.8.9-.8H50c.9 0 1.1.1 1.4.9.2.6.5 1.4.7 1.8.3.8.8 1.9.7 2.4 0 .3-.3.6-.7.7-.4.1-.8.3-.7.5.1.2.4.2.7.2.3 0 1.3-.1 1.8-.1h1.5c1.1 0 1.6.2 1.7-.2.2-.2-.9-.1-1.4-.4zm-24-6.7H27c-.3 0-.4-.1-.3-.4l2.7-5.8c.1-.3.3-.3.4 0l2.3 5.7c.1.3.2.5-.4.5zm18.4 0h-4.6c-.3 0-.5-.1-.3-.4l2.7-5.8c.1-.3.3-.3.4 0l2.3 5.7c0 .3 0 .5-.5.5zM61.4 10.4c0-.2.1-1.1-.2-1.1h-3.9c-1.5 0-1.5.4-1.9 1.6-.1.2-.1.5-.4.5-.2 0-.2-.2-.2-.3l.3-2.1c0-.3 0-.9.4-.9 1.9 0 3.7.1 6.7.1 4.3 0 6.5-.1 6.9-.1.5 0 .6.1.7.7l.1 1.9c.1.2.1.5-.2.5-.9 0 .4-1.8-2-1.8h-3.4c-1 0-.9-.1-.9 1.2v12c0 2 1.9 1.2 1.9 1.9 0 .1 0 .3-.2.3-.6 0-1.2-.1-1.9-.1-2.6 0-3.1.1-3.2.1-.2 0-.3-.1-.3-.3 0-.6 1.8-.3 1.8-1.7l-.1-12.4zM79 7.8c4.4 0 5.7 1.8 6.3 1.8.2 0 .4-.2.6-.2.3 0 .3.4.4 1.9 0 1.3.3 2-.2 2-.3 0-.4-.6-.5-.8-1.5-2.5-3.1-4.1-6.2-4.1-4.6 0-6.8 3.1-6.8 7.5 0 4.1 2.3 8.2 6.9 8.2 3.7 0 6-2.3 6.4-3.4 0-.2.2-.3.3-.3.1 0 .2.1.2.3l-.5 2.3c0 .1-1.7 1.9-7 1.9-4.8 0-8.3-3.3-8.3-8.2 0-4.9 3.5-8.9 8.4-8.9zM90.1 10.1c0-1.7-2-1.3-2-1.8 0-.2.2-.3.4-.3.9 0 1.7.1 2.6.1.7 0 1.5-.1 2.2-.1.4 0 .5.1.5.2 0 .5-1.7 0-1.7 1.8v5.1c0 .3 0 .4.3.4h8.7c.2 0 .2-.6.2-.7V10c0-1.6-1.8-1.2-1.8-1.8 0-.1 0-.3.4-.3.8 0 2 .1 2.4.1.9 0 1.3-.1 1.7-.1.6 0 .7.2.7.4 0 .4-1.6 0-1.6 1.7v12.5c0 1.7 2.2 1.3 2.2 1.9 0 .1-.1.3-.3.3-.6 0-1.4-.1-2.2-.1-1.5 0-2.2.1-2.6.1-.2 0-.6.1-.6-.3 0-.6 1.7-.2 1.7-1.7V17c0-.4.1-.6-.2-.6h-8.7c-.3 0-.3.1-.3.4v5.9c0 1.6 2.2 1.1 2.2 1.8 0 .1-.2.2-.4.2-.3 0-2.1-.1-3.3-.1-1.7 0-1.9.1-2 .1-.2 0-.3-.1-.3-.3 0-.7 1.8.1 1.8-2.2V10.1zM109 10.1c0-1.7-1.9-1.3-1.9-1.8 0-.2.1-.3.2-.3.9 0 1.7.1 2.6.1.7 0 1.5-.1 2.2-.1.4 0 .5.1.5.2 0 .6-1.7 0-1.7 1.8v12.7c0 1.6 2.1 1.1 2.1 1.8 0 .2-.1.2-.4.2-.5 0-1.6-.1-2.6-.1-1.5 0-1.9.1-2.3.1-.4 0-.5-.1-.5-.3 0-.7 1.8.1 1.8-2.2V10.1z"/><g fill="#F47D30"><path d="M125.2 8h4.1v13.2h6.5v3.5h-10.6V8zM148.7 8l6.1 16.7h-4.4l-.8-2.7h-6.1l-.8 2.7h-4.4L144.4 8h4.3zm-2.2 4c-.2.8-.4 1.7-.7 2.6-.3 1.2-1 3.2-1.4 4.5h4.2l-2.1-7.1z"/></g></svg>